<?xml version="1.0" standalone="no"?>
<!DOCTYPE svg PUBLIC "-//W3C//DTD SVG 20010904//EN"
 "http://www.w3.org/TR/2001/REC-SVG-20010904/DTD/svg10.dtd">
<svg version="1.0" xmlns="http://www.w3.org/2000/svg"
 width="640.000000pt" height="1280.000000pt" viewBox="0 0 640.000000 1280.000000"
 preserveAspectRatio="xMidYMid meet">
<g transform="translate(0.000000,1280.000000) scale(0.100000,-0.100000)"
fill="#000000" stroke="none">
<path d="M3074 12718 c4 -32 3 -32 -27 -16 -19 10 -20 9 -10 -4 11 -13 4 -17
-47 -32 -34 -9 -82 -27 -108 -39 l-48 -23 -17 20 -18 21 12 -21 c11 -19 5 -28
-59 -92 -40 -40 -73 -66 -76 -59 -2 7 -5 5 -5 -4 -1 -9 -16 -47 -35 -86 -19
-38 -40 -90 -47 -114 -7 -24 -18 -47 -24 -51 -6 -5 -6 -8 0 -9 6 0 -1 -5 -15
-9 l-25 -8 24 -1 c24 -1 24 -1 6 -21 -13 -14 -14 -19 -4 -15 12 4 13 -10 11
-85 -3 -84 -5 -90 -20 -78 -15 11 -15 10 0 -8 14 -16 15 -23 6 -32 -9 -9 -9
-12 2 -12 9 0 8 -6 -6 -22 -15 -19 -16 -20 -1 -9 16 13 17 6 17 -103 0 -91 -3
-116 -12 -110 -10 6 -10 4 0 -8 12 -14 10 -17 -15 -21 l-28 -4 28 -2 c30 -1
34 -10 15 -30 -10 -11 -10 -13 0 -7 9 6 12 -14 12 -83 0 -61 -4 -91 -11 -91
-8 0 -8 -4 0 -14 10 -12 7 -15 -16 -19 l-28 -4 28 -2 c30 -1 34 -10 15 -30
-10 -11 -10 -13 0 -7 9 6 12 -18 12 -104 0 -86 -3 -110 -12 -104 -10 6 -10 4
0 -7 18 -19 15 -27 -10 -32 -23 -4 -23 -4 1 -6 21 -1 22 -3 10 -18 -10 -11
-10 -14 -1 -9 9 5 12 -15 12 -89 0 -74 -3 -95 -12 -89 -10 6 -10 4 0 -7 17
-18 15 -27 -5 -32 -16 -4 -16 -5 1 -6 16 -1 17 -3 5 -18 -10 -11 -10 -14 -1
-9 9 6 12 -19 12 -109 0 -90 -3 -115 -12 -109 -10 6 -10 4 0 -8 11 -14 10 -17
-10 -21 l-23 -4 23 -2 c25 -1 28 -11 10 -30 -10 -11 -10 -13 0 -7 9 6 12 -15
12 -89 0 -74 -3 -94 -12 -89 -10 6 -9 3 0 -8 12 -15 9 -17 -20 -21 l-33 -4 33
-1 c34 -2 39 -10 20 -31 -10 -11 -10 -13 0 -7 9 6 12 -18 12 -104 0 -86 -3
-110 -12 -104 -10 6 -10 4 0 -7 19 -20 15 -27 -20 -32 l-33 -4 34 -1 c28 -2
32 -4 21 -17 -9 -10 -9 -15 -1 -15 7 0 11 -30 11 -91 0 -69 -3 -89 -12 -83
-10 6 -10 4 0 -7 18 -19 15 -27 -10 -32 -23 -4 -23 -4 1 -6 21 -1 22 -3 10
-18 -10 -11 -10 -14 -1 -9 9 6 12 -19 12 -110 0 -109 -1 -116 -17 -103 -15 11
-14 10 1 -9 14 -16 15 -22 6 -22 -11 0 -11 -3 -2 -12 9 -9 8 -16 -6 -32 -16
-20 -16 -20 1 -7 16 13 17 7 17 -83 0 -75 -3 -95 -12 -90 -10 6 -10 4 0 -8 11
-14 10 -17 -10 -21 l-23 -4 23 -2 c25 -1 28 -11 10 -30 -10 -11 -10 -13 0 -7
9 6 12 -18 12 -103 0 -76 -4 -111 -11 -111 -8 0 -8 -5 1 -15 11 -13 8 -15 -16
-16 l-29 -1 26 -7 c25 -6 25 -8 28 -110 2 -84 0 -102 -11 -96 -10 6 -11 5 0
-6 19 -20 15 -27 -20 -32 l-33 -4 34 -1 c28 -2 32 -4 21 -17 -9 -10 -9 -15 -1
-15 7 0 11 -36 11 -111 0 -105 -1 -111 -17 -98 -14 11 -13 8 2 -9 16 -20 17
-25 5 -32 -13 -8 -13 -10 -1 -10 11 0 9 -5 -5 -22 -15 -19 -16 -20 -1 -9 16
13 17 7 17 -84 0 -91 -1 -97 -17 -84 -16 12 -16 11 0 -8 18 -21 18 -21 0 -26
-16 -4 -16 -5 0 -6 9 0 17 -4 17 -8 0 -3 -8 -16 -17 -27 -17 -20 -17 -20 0 -7
16 13 17 7 17 -98 0 -75 -4 -111 -11 -111 -8 0 -8 -4 0 -14 10 -12 7 -15 -16
-19 l-28 -4 28 -2 c30 -1 34 -10 15 -30 -11 -11 -10 -12 0 -6 11 6 13 -12 11
-96 -3 -102 -3 -104 -28 -110 l-26 -7 29 -1 c24 -1 27 -3 16 -16 -9 -10 -9
-15 -1 -15 7 0 11 -35 11 -111 0 -85 -3 -109 -12 -103 -10 6 -10 4 0 -7 18
-19 15 -27 -10 -32 -23 -4 -23 -4 1 -6 21 -1 22 -3 10 -18 -10 -11 -10 -14 -1
-9 9 5 12 -15 12 -90 0 -90 -1 -96 -17 -83 -14 11 -13 8 2 -9 16 -20 17 -25 5
-32 -13 -8 -13 -10 -1 -10 11 0 9 -5 -5 -22 -15 -19 -16 -20 -1 -9 16 13 17 6
17 -103 0 -91 -3 -116 -12 -110 -10 6 -10 4 0 -8 12 -14 10 -17 -15 -21 l-28
-4 28 -2 c30 -1 34 -10 15 -30 -10 -11 -10 -13 0 -7 9 6 12 -14 12 -83 0 -61
-4 -91 -11 -91 -8 0 -8 -4 0 -14 10 -12 7 -15 -16 -19 l-28 -4 28 -2 c30 -1
34 -10 15 -30 -10 -11 -10 -13 0 -7 9 6 12 -18 12 -104 0 -86 -3 -110 -12
-104 -10 6 -10 4 0 -7 18 -19 15 -27 -10 -32 -23 -4 -23 -4 1 -6 21 -1 22 -3
10 -18 -10 -11 -10 -14 -1 -9 9 5 12 -15 12 -89 0 -74 -3 -95 -12 -89 -10 6
-10 4 0 -7 18 -19 15 -27 -10 -32 -23 -4 -23 -4 1 -6 21 -1 22 -3 10 -18 -10
-11 -10 -14 -1 -9 9 6 12 -19 12 -109 0 -90 -3 -115 -12 -109 -10 6 -10 4 0
-8 11 -14 10 -17 -10 -21 l-23 -4 23 -2 c25 -1 28 -11 10 -30 -10 -11 -10 -13
0 -7 9 6 12 -15 12 -89 0 -74 -3 -94 -13 -89 -9 6 -9 4 1 -8 12 -14 10 -17
-15 -21 l-28 -4 28 -2 c30 -1 34 -10 15 -30 -10 -11 -10 -13 0 -7 9 6 12 -18
12 -104 0 -86 -3 -110 -12 -104 -10 6 -10 4 0 -7 19 -20 15 -27 -20 -32 l-33
-4 34 -1 c28 -2 32 -4 21 -17 -9 -10 -9 -15 -1 -15 7 0 11 -30 11 -91 0 -69
-3 -89 -12 -83 -10 6 -10 4 0 -7 18 -19 15 -27 -10 -32 -23 -4 -23 -4 1 -6 21
-1 22 -3 10 -18 -10 -11 -10 -14 -2 -9 10 6 13 -19 13 -110 0 -109 -1 -116
-17 -103 -15 11 -14 10 1 -9 14 -16 15 -22 6 -22 -11 0 -11 -3 -2 -12 9 -9 8
-16 -6 -32 -16 -20 -16 -20 1 -7 16 13 17 7 17 -83 0 -75 -3 -95 -12 -90 -10
6 -10 4 0 -8 11 -14 10 -17 -10 -21 l-23 -4 23 -2 c25 -1 28 -11 9 -30 -9 -11
-9 -13 1 -7 9 6 12 -18 12 -103 0 -76 -4 -111 -11 -111 -8 0 -8 -5 1 -15 11
-13 8 -15 -16 -16 l-29 -1 26 -7 c25 -6 25 -8 28 -110 2 -84 0 -102 -11 -96
-10 6 -11 5 0 -6 19 -20 15 -27 -20 -32 l-33 -4 34 -1 c28 -2 32 -4 21 -17 -9
-10 -9 -15 -1 -15 7 0 11 -35 11 -111 0 -85 -3 -109 -12 -103 -10 6 -10 4 0
-7 17 -18 15 -27 -5 -32 -16 -4 -16 -5 1 -6 19 -1 19 -1 0 -23 -15 -19 -16
-20 -1 -9 16 13 17 7 17 -84 0 -91 -1 -97 -17 -84 -15 11 -14 10 1 -9 19 -22
19 -22 0 -22 -18 -1 -18 -1 -1 -11 18 -10 18 -12 0 -32 -16 -19 -16 -20 -1 -8
17 13 18 7 18 -98 0 -75 -4 -111 -11 -111 -8 0 -8 -4 0 -14 10 -12 7 -15 -16
-19 l-28 -4 28 -2 c30 -1 34 -10 14 -30 -9 -11 -9 -13 0 -7 10 5 13 -6 13 -43
0 -52 -19 -83 -21 -34 -2 23 -2 24 -6 6 -5 -27 -18 -29 -33 -5 -11 16 -11 16
-6 -1 5 -14 1 -16 -22 -11 -41 10 -144 62 -170 87 -17 15 -19 23 -10 29 9 5 5
8 -11 8 l-24 0 24 26 24 27 -29 -19 -29 -18 -31 36 c-43 50 -98 148 -83 148 7
0 6 4 -3 10 -13 9 -12 13 5 27 17 14 18 15 2 9 -28 -9 -42 12 -70 100 -40 128
-41 138 -20 130 16 -5 16 -4 -1 9 -22 17 -21 20 14 35 23 9 22 10 -7 4 -34 -6
-42 3 -21 25 11 10 10 11 -3 6 -13 -5 -18 9 -31 85 -13 81 -13 90 1 85 12 -5
11 -2 -3 14 -17 18 -17 19 1 24 16 4 16 5 1 6 -21 1 -23 12 -6 30 11 10 10 11
-3 6 -14 -5 -17 9 -25 105 -8 96 -7 110 6 105 12 -5 13 -4 3 6 -19 19 -16 27
10 32 18 4 17 5 -7 6 -23 1 -26 4 -17 15 7 8 8 16 3 18 -6 1 -13 46 -17 98 -7
91 -7 94 11 80 18 -14 19 -14 1 7 -18 21 -18 21 5 26 23 4 23 4 1 6 -26 1 -29
11 -10 30 9 11 9 13 0 7 -10 -6 -13 12 -13 72 0 44 -3 94 -7 112 -5 30 -4 33
13 26 15 -6 17 -5 7 5 -19 19 -16 27 10 32 l22 4 -22 2 c-26 1 -29 11 -11 30
11 10 10 11 -5 6 -15 -7 -17 1 -17 86 0 97 4 112 30 122 12 4 11 6 -2 6 -21 1
-23 12 -5 30 10 10 9 11 -6 6 -16 -7 -17 3 -17 110 0 110 1 117 18 104 14 -11
13 -10 -2 9 l-19 22 29 1 c24 1 25 3 7 6 -26 5 -29 13 -11 32 11 10 10 11 -5
6 -15 -7 -17 1 -17 86 0 101 4 114 35 122 18 4 18 5 -2 6 -26 1 -29 11 -11 30
11 10 10 11 -5 6 -16 -7 -17 3 -17 110 0 110 1 117 18 104 14 -11 13 -10 -2 9
l-19 22 29 1 c24 1 25 3 7 6 -26 5 -29 13 -10 32 10 10 9 11 -6 6 -15 -7 -17
1 -17 86 0 101 4 114 35 122 18 4 18 5 -2 6 -26 1 -29 11 -11 30 11 10 10 11
-5 6 -16 -7 -17 3 -17 110 0 110 1 117 17 104 15 -11 14 -10 -1 9 l-19 22 29
1 c24 1 25 3 7 6 -26 5 -29 13 -11 32 11 10 10 11 -4 6 -16 -7 -18 1 -18 86 0
52 4 99 8 105 4 7 18 14 32 17 25 4 25 4 -2 6 -30 1 -35 10 -16 30 11 10 10
11 -4 6 -15 -6 -18 -1 -18 27 0 18 -8 64 -19 101 -12 45 -15 67 -7 67 6 0 5 4
-3 9 -8 5 -10 14 -6 21 5 8 3 11 -6 8 -8 -3 -24 11 -39 33 -14 21 -45 59 -69
84 -43 46 -43 46 -25 73 l17 27 -27 -24 c-14 -14 -26 -19 -26 -12 0 7 -4 10
-8 7 -5 -3 -31 6 -58 20 -27 14 -68 30 -91 36 -24 6 -43 14 -43 19 0 5 -6 6
-14 3 -8 -3 -16 2 -19 13 -4 17 -5 17 -6 -1 -1 -16 -3 -17 -18 -5 -11 10 -14
10 -9 2 5 -10 -5 -13 -41 -13 -26 0 -64 -4 -83 -10 -23 -7 -36 -6 -41 1 -4 7
-9 4 -13 -8 -7 -16 -9 -16 -22 7 -11 19 -14 20 -9 5 4 -16 -6 -27 -52 -54 -31
-19 -73 -49 -94 -68 -25 -23 -39 -30 -42 -21 -3 8 -6 6 -6 -4 -1 -21 -12 -23
-31 -6 -8 7 -6 3 4 -9 18 -21 18 -23 2 -23 -9 0 -15 -3 -12 -8 2 -4 -13 -43
-34 -86 -23 -49 -40 -74 -44 -65 -3 8 -3 4 0 -8 3 -15 1 -23 -8 -23 -10 0 -10
-2 1 -9 11 -7 10 -11 -5 -20 -14 -8 -15 -10 -4 -11 13 0 14 -17 12 -106 -3
-93 -5 -105 -20 -99 -14 5 -13 3 2 -14 17 -19 17 -20 -11 -24 l-28 -4 29 -2
29 -1 -19 -22 c-15 -19 -16 -20 -2 -9 17 13 18 7 18 -84 0 -87 -2 -96 -17 -91
-15 6 -15 5 1 -13 17 -19 17 -20 -16 -24 l-33 -4 34 -1 c34 -2 34 -2 16 -22
-17 -18 -17 -20 -2 -14 15 6 17 -5 17 -106 0 -103 -1 -112 -17 -105 -15 5 -16
4 -6 -6 19 -19 16 -27 -9 -32 -19 -3 -18 -5 6 -6 l29 -1 -19 -22 c-15 -19 -16
-20 -2 -9 17 13 18 7 18 -84 0 -88 -2 -97 -17 -90 -15 5 -16 4 -5 -6 18 -19
15 -27 -16 -32 -24 -4 -23 -4 7 -6 l34 -1 -19 -22 c-15 -19 -16 -20 -1 -9 16
13 17 6 17 -104 0 -107 -1 -117 -17 -110 -15 5 -16 4 -5 -6 18 -19 15 -27 -10
-32 -19 -3 -18 -5 6 -6 l29 -1 -19 -22 c-15 -19 -16 -20 -1 -9 16 13 17 7 17
-84 0 -88 -2 -97 -17 -90 -15 5 -16 4 -6 -6 19 -19 16 -27 -14 -32 -25 -4 -24
-4 6 -6 l34 -1 -19 -22 c-15 -19 -16 -20 -1 -9 16 13 17 6 17 -104 0 -107 -1
-117 -17 -110 -15 5 -16 4 -6 -6 19 -19 16 -27 -9 -32 -19 -3 -18 -5 6 -6 l29
-1 -19 -22 c-15 -19 -16 -20 -1 -9 16 13 17 7 17 -84 0 -88 -2 -97 -17 -90
-15 5 -16 4 -5 -6 18 -19 15 -27 -15 -32 -25 -4 -24 -4 6 -6 l34 -1 -19 -22
c-15 -19 -16 -20 -1 -9 16 13 17 6 17 -103 0 -68 -4 -116 -10 -116 -5 0 -7 -6
-4 -14 4 -9 -3 -16 -18 -19 -20 -4 -19 -4 6 -6 l29 -1 -19 -22 c-15 -19 -16
-20 -1 -9 16 13 17 7 17 -84 0 -88 -2 -97 -18 -90 -14 5 -15 4 -5 -6 20 -20
15 -29 -14 -30 -28 -2 -28 -2 -3 -6 14 -3 28 -10 32 -17 12 -17 10 -236 -2
-236 -5 0 -7 -6 -4 -14 3 -8 -2 -16 -13 -19 -14 -4 -12 -5 6 -6 24 -1 24 -1 5
-23 -15 -19 -16 -20 -2 -9 17 12 18 10 18 -36 0 -28 3 -72 7 -99 6 -47 6 -48
-13 -34 -19 14 -19 14 0 -8 14 -17 16 -22 5 -22 -12 0 -12 -2 0 -9 7 -5 10
-14 7 -20 -4 -6 -3 -11 1 -11 5 0 17 -39 26 -87 9 -49 20 -99 24 -112 5 -19 3
-22 -8 -16 -11 6 -12 5 -1 -6 10 -11 8 -16 -10 -26 -22 -13 -22 -13 6 -7 26 6
28 5 22 -12 -4 -10 -4 -15 0 -11 4 4 20 -30 36 -75 32 -95 33 -102 16 -93 -7
4 -5 0 5 -8 16 -14 16 -15 -5 -31 l-23 -17 23 12 c13 6 25 9 26 7 2 -2 28 -51
59 -110 37 -70 52 -108 44 -112 -7 -2 -4 -5 5 -5 10 -1 20 -12 24 -26 4 -14 9
-24 11 -21 3 3 29 -27 59 -67 38 -50 50 -73 41 -79 -8 -5 -3 -8 12 -8 24 0 24
0 5 -22 -10 -13 -12 -17 -4 -10 21 18 30 15 31 -10 0 -19 2 -20 7 -6 6 13 24
0 95 -69 76 -73 86 -87 75 -101 -10 -14 -10 -15 2 -4 19 17 30 15 30 -5 0 -12
3 -14 8 -6 5 8 28 -2 77 -33 39 -25 69 -50 67 -55 -1 -5 5 -9 14 -9 11 0 14
-6 9 -22 -7 -23 -7 -23 10 -3 11 14 18 16 21 7 3 -6 9 -10 14 -7 4 2 43 -10
86 -29 44 -18 88 -36 99 -40 16 -6 17 -9 5 -17 -11 -8 -10 -9 8 -4 17 5 22 2
22 -12 0 -12 3 -14 8 -6 9 14 45 11 140 -11 40 -10 70 -22 67 -27 -4 -5 1 -6
9 -3 8 3 16 -2 19 -13 4 -16 5 -16 6 0 0 9 4 17 7 17 4 0 13 -8 20 -17 13 -17
14 -17 8 1 -6 15 -3 17 12 13 10 -3 55 -9 99 -12 119 -9 125 -11 125 -42 0
-26 1 -26 15 -7 13 17 14 10 15 -73 0 -62 -4 -93 -11 -93 -8 0 -8 -4 0 -14 10
-12 7 -15 -16 -19 l-28 -4 28 -2 c30 -1 34 -10 15 -30 -10 -11 -10 -13 0 -7 9
6 12 -18 12 -104 0 -86 -3 -110 -12 -104 -10 6 -10 4 0 -7 18 -19 15 -27 -10
-32 -23 -4 -23 -4 1 -6 21 -1 22 -3 10 -18 -10 -11 -10 -14 -2 -9 10 5 13 -15
13 -89 0 -74 -3 -95 -12 -89 -10 6 -10 4 0 -7 18 -19 15 -27 -11 -32 -22 -4
-22 -4 2 -6 21 -1 22 -3 10 -18 -10 -11 -10 -14 -1 -9 9 6 12 -19 12 -109 0
-90 -3 -115 -12 -109 -10 6 -10 4 0 -8 11 -14 10 -17 -10 -21 l-23 -4 23 -2
c25 -1 28 -11 9 -30 -9 -11 -9 -13 0 -7 10 6 13 -15 13 -89 0 -74 -3 -94 -12
-89 -10 6 -10 4 0 -8 12 -14 10 -17 -15 -21 l-28 -4 28 -2 c30 -1 34 -10 14
-30 -9 -11 -9 -13 0 -7 10 6 13 -18 13 -104 0 -86 -3 -110 -12 -104 -10 6 -10
4 0 -7 18 -20 15 -27 -15 -32 l-28 -4 29 -2 c24 -1 27 -3 16 -16 -9 -10 -9
-15 -1 -15 7 0 11 -30 11 -91 0 -69 -3 -89 -12 -83 -10 6 -10 4 0 -7 18 -19
15 -27 -10 -32 -23 -4 -23 -4 1 -6 21 -1 22 -3 10 -18 -10 -11 -10 -14 -2 -9
10 5 13 -10 13 -63 l0 -71 640 0 640 0 0 71 c0 53 3 68 13 63 9 -6 9 -4 -1 8
-11 14 -10 17 10 21 l23 4 -22 2 c-26 1 -29 11 -10 30 10 11 10 13 0 7 -10 -6
-13 14 -13 83 0 61 4 91 11 91 8 0 8 4 0 14 -10 12 -7 15 16 19 l28 4 -27 2
c-31 1 -35 10 -15 30 10 11 10 13 -1 7 -9 -6 -12 18 -12 104 0 86 3 110 13
104 10 -6 10 -4 0 7 -19 20 -16 27 15 32 l27 4 -29 2 c-25 1 -27 3 -15 18 10
11 10 14 2 9 -10 -5 -13 15 -13 89 0 74 3 95 13 89 10 -6 10 -4 0 7 -19 19
-16 27 10 32 22 4 22 4 -2 6 -21 1 -22 3 -10 18 10 11 10 14 2 9 -10 -6 -13
19 -13 109 0 90 3 115 13 109 9 -6 9 -4 -1 8 -11 14 -10 17 10 21 l23 4 -22 2
c-26 1 -29 11 -11 30 11 11 11 13 0 7 -9 -6 -12 15 -12 89 0 74 3 94 13 89 9
-6 9 -4 -1 8 -11 14 -10 17 10 21 l23 4 -22 2 c-26 1 -29 11 -11 30 10 11 10
13 1 7 -10 -6 -13 18 -13 104 0 86 3 110 13 104 10 -6 10 -4 0 7 -19 20 -16
27 15 32 l27 4 -29 2 c-24 1 -27 3 -16 16 9 10 9 15 1 15 -7 0 -11 30 -11 91
0 69 3 89 13 83 10 -6 10 -4 0 7 -19 20 -16 27 15 32 l27 4 -29 2 c-25 1 -27
3 -15 18 10 11 10 14 2 9 -10 -6 -13 19 -13 110 0 109 1 116 18 103 14 -11 13
-10 -2 9 -14 17 -16 22 -5 22 12 0 12 2 -1 10 -12 7 -11 12 5 32 15 17 16 20
3 9 -17 -13 -18 -7 -18 83 0 75 3 95 13 90 9 -6 9 -4 -1 8 -11 14 -10 17 10
21 l23 4 -22 2 c-26 1 -29 11 -11 30 10 11 10 13 1 7 -10 -6 -13 18 -13 103 0
76 4 111 11 111 8 0 8 4 0 14 -10 12 -7 15 16 19 l28 4 -29 2 c-24 1 -27 3
-16 16 9 10 9 15 1 15 -7 0 -11 30 -11 91 0 69 3 89 13 83 10 -6 10 -4 0 7
-19 20 -16 27 15 32 l27 4 -29 2 c-24 1 -27 3 -16 16 9 10 9 15 1 15 -7 0 -11
36 -11 111 0 105 1 111 18 98 15 -12 15 -11 -1 8 -18 20 -18 22 0 32 17 10 17
10 -1 11 -19 0 -19 0 0 22 15 19 16 20 1 9 -16 -13 -17 -7 -17 85 1 89 2 97
15 80 14 -19 15 -19 15 7 0 29 9 34 29 14 10 -10 11 -9 6 6 -6 15 0 17 46 18
30 0 78 4 107 8 45 6 52 5 47 -8 -5 -11 -1 -11 14 3 18 17 19 17 24 -1 4 -17
5 -17 6 1 1 12 6 16 17 12 8 -3 13 -2 10 2 -3 5 30 17 72 26 42 10 83 20 91
23 10 4 12 1 8 -13 -7 -18 -6 -18 8 0 16 21 16 21 34 -9 10 -18 11 -17 5 9 -6
26 -5 28 17 21 18 -5 20 -4 9 4 -12 8 -11 11 5 17 11 3 56 22 100 40 51 22 81
30 86 23 4 -6 9 -3 13 8 7 16 9 16 27 -7 17 -21 19 -22 10 -3 -15 29 -14 33 6
33 9 0 14 3 10 6 -3 4 26 28 66 54 47 30 75 43 79 36 5 -7 8 -4 8 7 0 9 3 17
7 17 3 0 16 -8 27 -17 21 -18 21 -18 2 4 -19 22 -19 23 30 65 27 24 68 61 92
84 23 23 42 39 42 35 0 -3 4 0 9 8 7 11 13 11 32 1 24 -13 24 -13 5 9 -19 21
-19 21 0 21 12 0 15 3 7 8 -8 5 3 26 34 67 83 111 82 110 95 97 7 -7 16 -12
21 -12 5 0 -1 9 -14 20 -23 18 -23 19 -4 20 12 0 16 3 9 8 -6 4 8 42 41 105
28 53 55 94 60 90 4 -5 5 0 2 10 -6 15 -3 17 16 12 19 -5 20 -4 6 7 -15 12
-13 22 14 108 17 52 35 97 39 98 5 2 6 8 2 13 -3 5 5 10 18 10 17 1 18 3 6 6
-10 2 -18 7 -18 10 0 3 8 12 18 19 14 11 14 13 1 9 -14 -5 -13 8 7 112 13 65
24 119 24 120 0 1 10 4 23 6 l22 4 -22 2 c-28 1 -29 9 -5 27 14 12 15 13 1 8
-15 -5 -16 4 -12 83 3 48 9 89 14 91 4 2 6 9 3 17 -4 9 4 15 23 18 26 4 25 4
-6 6 l-34 1 19 22 c15 19 16 20 2 9 -17 -13 -18 -6 -18 104 0 107 1 117 18
110 14 -5 15 -4 5 6 -19 19 -16 27 10 32 18 3 17 5 -7 6 l-29 1 19 22 c15 19
16 20 2 9 -17 -13 -18 -7 -18 84 0 87 2 96 17 91 15 -6 15 -5 -1 13 -17 19
-17 20 16 24 l33 4 -34 1 c-34 2 -34 2 -16 22 17 18 17 20 2 14 -15 -6 -17 5
-17 106 0 103 1 112 18 105 14 -5 15 -4 5 6 -19 19 -16 27 10 32 18 3 17 5 -7
6 -29 1 -29 1 -11 21 17 18 17 20 2 14 -15 -5 -17 4 -17 86 0 82 2 91 17 86
15 -6 15 -5 -1 13 -17 19 -17 20 11 24 l28 4 -29 2 c-29 1 -29 1 -11 21 17 18
17 20 2 14 -15 -6 -17 5 -17 106 0 101 2 112 17 106 15 -6 15 -5 -1 13 -17 19
-17 20 16 24 l33 4 -34 1 c-34 2 -34 2 -16 22 17 18 17 20 2 14 -15 -5 -17 4
-17 91 0 91 1 97 18 84 15 -12 15 -11 -1 8 -19 21 -18 22 10 26 l28 4 -29 2
c-29 1 -29 1 -11 21 17 18 17 20 2 14 -15 -6 -17 5 -17 111 0 110 1 117 18
104 14 -11 13 -10 -2 9 l-19 22 34 1 c30 2 31 2 7 6 -31 5 -34 13 -15 32 10
10 9 11 -5 6 -16 -7 -18 2 -18 90 0 91 1 97 18 84 14 -11 13 -10 -2 9 l-19 22
29 1 c25 2 26 2 6 6 -15 3 -22 10 -18 19 3 8 1 14 -4 14 -6 0 -10 48 -10 116
0 109 1 116 18 103 14 -11 13 -10 -2 9 l-19 22 29 1 c25 2 26 2 6 6 -15 3 -22
10 -18 19 3 8 1 14 -4 14 -12 0 -13 179 -2 196 4 6 14 14 22 17 11 4 11 6 -4
6 -12 1 -16 6 -12 16 3 8 1 15 -4 15 -12 0 -14 219 -2 236 4 6 14 14 22 17 11
4 11 6 -4 6 -12 1 -16 6 -12 16 3 8 1 15 -4 15 -6 0 -10 41 -10 96 0 90 1 96
18 83 14 -11 15 -11 5 1 -7 8 -13 26 -13 40 0 14 6 32 13 40 10 12 9 12 -5 1
-17 -13 -18 -6 -18 103 0 75 4 115 10 111 6 -3 7 1 4 9 -4 9 -1 16 6 16 10 0
10 3 0 15 -6 8 -8 20 -4 26 4 8 3 9 -4 5 -9 -5 -12 19 -12 88 0 55 4 96 10 96
5 0 7 6 4 14 -3 8 2 16 13 19 16 4 16 5 1 6 -22 1 -27 24 -30 144 -3 81 -1 96
11 92 11 -4 10 0 -3 14 -17 19 -17 20 6 24 l23 4 -24 2 c-16 1 -21 5 -17 16 3
8 1 14 -4 12 -5 -1 -25 31 -44 71 -30 62 -33 72 -18 73 10 1 7 4 -8 8 -14 4
-30 18 -37 31 -7 14 -13 21 -13 16 0 -4 -19 7 -42 26 -24 19 -62 46 -86 60
-23 13 -39 28 -35 33 5 4 0 5 -9 2 -13 -4 -18 -1 -19 11 0 11 -2 13 -6 4 -4
-10 -9 -9 -24 4 -18 17 -19 17 -13 1 5 -15 3 -16 -19 -8 -14 6 -57 11 -96 12
-44 1 -71 6 -71 13 0 6 -4 5 -9 -3 -8 -13 -12 -13 -27 0 -10 8 -15 9 -11 3 4
-7 -16 -20 -56 -34 -34 -12 -76 -31 -94 -41 -24 -15 -32 -16 -36 -7 -4 8 -6 7
-6 -4 -1 -10 -12 -20 -26 -24 -13 -3 -23 -9 -22 -13 4 -13 -96 -130 -106 -124
-7 4 -8 0 -4 -11 6 -16 3 -17 -20 -11 -27 6 -27 6 -8 -9 17 -14 18 -17 5 -26
-8 -5 -10 -10 -4 -10 8 0 6 -19 -7 -61 -10 -33 -19 -79 -19 -101 0 -34 -3 -39
-17 -33 -15 5 -16 4 -5 -6 18 -19 15 -29 -10 -30 -21 -1 -21 -2 -3 -6 31 -8
35 -21 35 -122 0 -85 -2 -93 -17 -86 -15 5 -16 4 -5 -6 18 -19 15 -27 -10 -32
-19 -3 -18 -5 6 -6 l29 -1 -19 -22 c-15 -19 -16 -20 -1 -9 16 13 17 6 17 -104
0 -107 -1 -117 -17 -110 -15 5 -16 4 -5 -6 19 -20 14 -29 -15 -30 -28 -2 -28
-2 -3 -6 14 -3 28 -10 32 -17 4 -6 8 -53 8 -105 0 -85 -2 -93 -17 -86 -15 5
-16 4 -5 -6 18 -19 15 -27 -15 -32 -25 -4 -24 -4 6 -6 34 -1 34 -1 16 -21 -17
-18 -17 -20 -2 -14 15 6 17 -5 17 -106 0 -103 -1 -112 -17 -105 -15 5 -16 4
-5 -6 18 -19 15 -27 -15 -32 l-28 -4 28 -2 c29 -1 34 -10 15 -30 -11 -10 -10
-11 5 -6 15 7 17 -1 17 -85 0 -84 -2 -92 -17 -85 -15 5 -16 4 -5 -6 18 -19 15
-27 -15 -32 l-28 -4 28 -2 c29 -1 34 -10 15 -30 -11 -10 -10 -11 5 -6 16 7 17
-2 17 -105 0 -101 -2 -112 -17 -106 -15 6 -15 4 2 -14 18 -20 18 -20 -11 -21
-24 -1 -25 -3 -6 -6 25 -5 28 -13 10 -32 -11 -10 -10 -11 5 -6 15 7 17 -1 17
-86 0 -52 -4 -99 -8 -105 -4 -7 -18 -14 -32 -17 -25 -4 -25 -4 3 -6 29 -1 34
-10 15 -30 -11 -10 -10 -11 5 -6 16 7 17 -3 17 -110 0 -110 -1 -117 -17 -104
-15 11 -14 10 1 -9 l19 -22 -29 -1 c-24 -1 -25 -3 -6 -6 25 -5 28 -13 10 -32
-11 -10 -10 -11 5 -6 15 7 17 -1 17 -86 0 -101 -4 -114 -35 -122 -18 -4 -18
-5 3 -6 25 -1 28 -11 10 -30 -11 -10 -10 -11 5 -6 16 7 17 -2 17 -106 0 -121
-3 -134 -35 -142 -18 -4 -18 -5 3 -6 25 -1 28 -11 10 -30 -11 -10 -10 -11 5
-6 15 7 17 -2 17 -89 0 -61 -4 -96 -11 -96 -5 0 -7 -4 -4 -10 3 -5 1 -10 -6
-10 -8 0 -9 -4 0 -13 8 -10 7 -17 -2 -26 -9 -10 -8 -11 7 -5 17 7 19 4 13 -32
-4 -21 -7 -74 -7 -118 0 -73 -1 -78 -17 -65 -17 13 -17 13 -1 -7 14 -16 15
-23 6 -32 -9 -9 -9 -12 1 -12 11 0 11 -3 0 -17 -12 -14 -12 -16 0 -8 12 7 13
-3 8 -61 -4 -38 -7 -82 -7 -97 0 -16 -4 -26 -10 -22 -6 4 -7 -1 -3 -10 3 -10
0 -21 -8 -26 -12 -7 -12 -9 0 -9 7 0 11 -6 7 -15 -3 -8 -2 -15 2 -15 4 0 4
-35 0 -77 -3 -43 -7 -93 -7 -112 -1 -27 -4 -32 -18 -26 -15 5 -16 4 -5 -6 17
-18 15 -27 -5 -32 -16 -4 -16 -5 1 -6 15 -1 16 -4 6 -16 -7 -8 -8 -15 -3 -15
6 0 4 -37 -5 -90 -13 -76 -18 -90 -31 -85 -13 5 -14 4 -3 -6 21 -22 13 -31
-20 -25 -30 6 -31 5 -8 -4 35 -15 36 -18 14 -35 -17 -13 -17 -14 -1 -9 21 8
20 -2 -20 -130 -27 -87 -42 -109 -70 -100 -16 5 -16 4 2 -11 16 -13 17 -17 6
-24 -8 -6 -9 -10 -2 -12 26 -9 -112 -199 -146 -199 -7 0 -10 -6 -8 -12 6 -16
-78 -73 -144 -99 -60 -22 -75 -24 -65 -6 6 9 4 9 -7 -1 -19 -18 -27 -15 -32
11 -4 18 -4 17 -6 -6 -2 -49 -21 -18 -21 35 0 47 1 49 18 37 16 -13 16 -13 0
7 -14 16 -15 23 -6 32 9 9 9 12 -2 12 -9 0 -8 6 6 22 15 19 16 20 1 9 -16 -13
-17 -6 -17 103 0 91 3 116 13 110 9 -6 9 -4 -1 8 -11 14 -10 17 10 21 l23 4
-22 2 c-26 1 -29 11 -10 30 10 11 10 13 0 7 -10 -6 -13 14 -13 83 0 61 4 91
11 91 8 0 8 4 0 14 -10 12 -7 15 21 19 l33 4 -32 1 c-35 2 -40 10 -20 31 10
11 10 13 0 7 -10 -6 -13 18 -13 104 0 86 3 110 13 104 10 -6 10 -4 0 7 -19 20
-16 27 15 32 l27 4 -29 2 c-25 1 -27 3 -15 18 10 11 10 14 2 9 -10 -5 -13 15
-13 89 0 74 3 95 13 89 10 -6 10 -4 0 7 -19 19 -16 27 10 32 22 4 22 4 -2 6
-21 1 -22 3 -10 18 10 11 10 14 2 9 -10 -6 -13 19 -13 109 0 90 3 115 13 109
9 -6 9 -4 -1 8 -11 14 -10 17 10 21 l23 4 -22 2 c-26 1 -29 11 -10 30 10 11
10 13 0 7 -10 -6 -13 15 -13 89 0 74 3 94 13 89 9 -6 9 -4 -1 8 -11 14 -10 17
10 21 l23 4 -22 2 c-26 1 -29 11 -10 30 9 11 9 13 0 7 -10 -6 -13 18 -13 104
0 86 3 110 13 104 10 -6 10 -4 0 7 -19 20 -16 27 15 32 l27 4 -29 2 c-24 1
-27 3 -16 16 9 10 9 15 1 15 -7 0 -11 30 -11 91 0 69 3 89 13 83 10 -6 10 -4
0 7 -19 20 -16 27 15 32 l27 4 -29 2 c-25 1 -27 3 -15 18 10 11 10 14 2 9 -10
-6 -13 19 -13 110 0 109 1 116 18 103 14 -11 13 -10 -2 9 -14 17 -16 22 -5 22
12 0 12 2 -1 10 -12 7 -11 12 5 32 15 17 16 20 3 9 -17 -13 -18 -7 -18 83 0
75 3 95 13 90 9 -6 9 -4 -1 8 -11 14 -10 17 10 21 l23 4 -22 2 c-26 1 -29 11
-10 30 10 11 10 13 0 7 -10 -6 -13 18 -13 103 0 76 4 111 11 111 8 0 8 5 -1
15 -11 13 -8 15 16 16 l29 1 -26 7 c-25 6 -25 8 -28 110 -2 84 0 102 11 96 10
-6 11 -5 1 6 -19 20 -16 27 15 32 l27 4 -29 2 c-24 1 -27 3 -16 16 9 10 9 15
1 15 -7 0 -11 36 -11 111 0 105 1 111 18 98 16 -13 16 -13 0 7 -10 11 -18 23
-18 27 0 3 8 8 18 10 15 4 15 5 -2 6 -19 1 -19 1 0 23 15 19 16 20 2 9 -17
-13 -18 -7 -18 84 0 91 1 97 18 84 14 -11 13 -10 -2 9 -14 17 -16 22 -5 22 12
0 12 2 -1 10 -12 7 -11 12 5 32 15 17 16 20 3 9 -17 -13 -18 -7 -18 98 0 75 4
111 11 111 8 0 8 4 0 14 -10 12 -7 15 21 19 l33 4 -32 1 c-35 2 -40 10 -20 31
10 11 9 12 -1 6 -11 -6 -13 12 -11 96 3 102 3 104 28 110 l26 7 -29 1 c-24 1
-27 3 -16 16 9 10 9 15 1 15 -7 0 -11 35 -11 111 0 85 3 109 13 103 10 -6 10
-4 0 7 -19 19 -16 27 10 32 22 4 22 4 -2 6 -21 1 -22 3 -10 18 10 11 10 14 2
9 -10 -5 -13 15 -13 90 0 90 1 96 18 83 16 -13 16 -13 0 7 -14 16 -15 23 -6
32 9 9 9 12 -2 12 -9 0 -8 6 6 22 15 19 16 20 2 9 -17 -13 -18 -6 -18 103 0
91 3 116 13 110 9 -6 9 -4 -1 8 -11 14 -10 17 10 21 l23 4 -22 2 c-26 1 -29
11 -10 30 10 11 10 13 0 7 -10 -6 -13 14 -13 83 0 61 4 91 11 91 8 0 8 4 0 14
-10 12 -7 15 21 19 l33 4 -32 1 c-35 2 -40 10 -20 31 10 11 10 13 0 7 -10 -6
-13 18 -13 104 0 86 3 110 13 104 10 -6 10 -4 0 7 -20 20 -16 27 20 32 l32 4
-34 1 c-30 2 -32 4 -20 19 10 11 10 14 2 9 -10 -5 -13 15 -13 89 0 74 3 95 13
89 10 -6 10 -4 0 7 -19 19 -16 27 10 32 22 4 22 4 -2 6 -21 1 -22 3 -10 18 10
11 10 14 2 9 -10 -6 -13 19 -13 109 0 90 3 115 13 109 9 -6 9 -4 -1 8 -11 14
-10 17 5 21 17 4 17 5 1 6 -21 1 -23 12 -5 30 10 11 10 13 0 7 -10 -6 -13 15
-13 89 0 74 3 94 13 89 9 -6 9 -4 -1 8 -11 14 -10 17 10 21 l23 4 -22 2 c-26
1 -29 11 -10 30 10 11 10 13 0 7 -10 -6 -13 18 -13 104 0 86 3 110 13 104 10
-6 10 -4 0 7 -19 20 -16 27 15 32 l27 4 -29 2 c-24 1 -27 3 -16 16 9 10 9 15
1 15 -7 0 -11 30 -11 91 0 69 3 89 13 83 10 -6 10 -4 0 7 -19 20 -16 27 15 32
l27 4 -29 2 c-25 1 -27 3 -15 18 10 11 10 14 2 9 -10 -6 -13 19 -13 110 0 109
1 116 18 103 14 -11 13 -10 -2 9 -14 16 -15 22 -6 22 11 0 11 3 2 12 -9 9 -8
16 6 32 15 18 15 19 0 8 -15 -12 -17 -6 -20 78 -2 75 -1 89 11 85 10 -4 9 1
-4 15 -18 20 -18 20 6 21 l24 1 -25 8 c-14 4 -20 9 -15 9 6 1 6 4 0 9 -6 4
-17 27 -24 51 -7 24 -28 76 -47 114 -19 39 -34 77 -35 86 0 10 -2 11 -5 4 -3
-7 -31 13 -68 50 -83 83 -133 112 -248 144 -32 9 -58 20 -58 24 0 5 -6 6 -14
3 -10 -4 -12 2 -10 23 4 26 -1 20 -12 -16 -4 -11 -7 -11 -21 0 -12 10 -14 10
-9 2 5 -10 -14 -13 -84 -13 -70 0 -89 3 -84 13 5 8 3 8 -9 -2 -14 -11 -17 -11
-21 0 -11 36 -16 42 -12 17z"/>
<path d="M3575 12619 c-4 -6 -5 -12 -2 -15 2 -3 7 2 10 11 7 17 1 20 -8 4z"/>
<path d="M4641 9723 c7 -12 15 -20 18 -17 3 2 -3 12 -13 22 -17 16 -18 16 -5
-5z"/>
<path d="M5374 9635 c-10 -8 -14 -15 -8 -15 6 0 17 7 24 15 16 19 9 19 -16 0z"/>
<path d="M1870 6920 c0 -5 5 -10 10 -10 6 0 10 5 10 10 0 6 -4 10 -10 10 -5 0
-10 -4 -10 -10z"/>
<path d="M4115 4730 c10 -11 20 -20 23 -20 3 0 -3 9 -13 20 -10 11 -20 20 -23
20 -3 0 3 -9 13 -20z"/>
<path d="M1175 2710 c-3 -6 1 -7 9 -4 18 7 21 14 7 14 -6 0 -13 -4 -16 -10z"/>
</g>
</svg>
