<?xml version="1.0" standalone="no"?>
<!DOCTYPE svg PUBLIC "-//W3C//DTD SVG 20010904//EN"
 "http://www.w3.org/TR/2001/REC-SVG-20010904/DTD/svg10.dtd">
<svg version="1.0" xmlns="http://www.w3.org/2000/svg"
 width="1280.000000pt" height="1280.000000pt" viewBox="0 0 1280.000000 1280.000000"
 preserveAspectRatio="xMidYMid meet">
<defs>
    <clipPath id="polygon-clip-triangle-equilateral" clipPathUnits="objectBoundingBox">
    	<g transform="translate(0.000000,1280.000000) scale(0.100000,-0.100000)" fill="#000000" stroke="none">
		<path d="M8132 11031 c-16 -17 -44 -66 -62 -111 -18 -45 -39 -84 -46 -87 -6
		-2 -31 6 -55 18 -68 34 -196 76 -310 101 -91 19 -134 22 -344 23 -213 0 -253
		-3 -355 -23 -327 -66 -666 -232 -957 -468 -51 -41 -157 -143 -237 -225 -80
		-83 -150 -149 -155 -147 -5 1 -67 71 -136 153 -165 195 -192 222 -232 236 -91
		30 -157 -70 -104 -156 10 -16 83 -106 162 -198 188 -221 185 -216 172 -236 -5
		-9 -21 -17 -34 -19 -14 -2 -121 22 -239 52 -118 31 -230 56 -248 56 -65 0
		-112 -40 -112 -95 0 -72 39 -94 275 -155 110 -29 203 -54 207 -56 4 -2 -40
		-95 -97 -207 -352 -687 -553 -1504 -629 -2559 -8 -109 -17 -202 -21 -208 -9
		-15 -130 50 -224 121 -222 166 -382 448 -455 796 -40 194 -49 294 -48 528 3
		452 -37 719 -139 931 -78 163 -183 253 -332 284 -128 26 -271 -19 -442 -139
		-261 -183 -448 -394 -572 -646 -30 -60 -58 -114 -63 -119 -4 -4 -85 43 -182
		108 -158 106 -177 116 -218 116 -62 -1 -100 -35 -100 -92 0 -50 39 -86 234
		-218 124 -84 196 -139 196 -150 0 -9 -7 -61 -15 -116 -8 -54 -15 -120 -15
		-145 0 -27 -6 -51 -14 -58 -7 -6 -103 -27 -211 -46 -109 -19 -212 -39 -230
		-45 -101 -33 -106 -161 -8 -190 32 -10 70 -6 243 24 138 24 208 32 216 25 7
		-5 15 -42 19 -81 7 -63 5 -72 -11 -82 -11 -6 -107 -52 -214 -103 -227 -107
		-259 -130 -267 -190 -5 -37 -2 -45 26 -74 49 -49 90 -40 322 69 150 71 196 89
		205 79 6 -6 28 -59 49 -117 278 -771 813 -1271 1555 -1456 184 -45 317 -64
		503 -71 90 -3 163 -11 172 -17 12 -9 17 -62 25 -261 16 -365 36 -599 69 -785
		22 -125 26 -168 18 -176 -7 -7 -77 -16 -158 -22 -153 -10 -194 -22 -223 -64
		-30 -43 -14 -103 34 -131 31 -19 130 -21 285 -7 50 4 97 4 105 0 15 -9 81
		-274 73 -296 -2 -7 -104 -49 -226 -94 -252 -94 -289 -111 -311 -142 -25 -36
		-20 -91 10 -122 45 -45 91 -37 338 55 119 44 224 79 234 77 12 -2 23 -29 40
		-93 286 -1118 676 -1968 1114 -2430 99 -105 146 -138 247 -175 211 -77 471
		-81 675 -10 132 45 273 138 313 207 30 51 29 41 58 698 20 450 44 864 50 893
		3 12 9 22 14 22 5 0 58 -20 117 -45 149 -63 175 -69 217 -51 84 34 89 128 11
		177 -18 11 -97 47 -175 79 -79 33 -149 65 -156 72 -10 11 -10 51 2 218 41 568
		102 1221 116 1235 6 6 48 -4 117 -28 272 -93 446 -121 752 -121 329 1 529 36
		865 150 105 36 204 68 220 70 27 5 42 -7 168 -126 75 -72 149 -135 164 -141
		67 -25 133 20 133 91 0 48 -34 95 -134 184 -112 101 -112 96 -9 152 49 26 109
		60 136 75 26 16 57 29 69 29 11 0 93 -47 182 -104 89 -58 174 -110 191 -116
		95 -36 178 66 119 147 -11 16 -79 68 -152 116 -73 48 -130 92 -128 96 3 4 63
		49 133 99 234 167 580 463 709 608 141 158 241 331 285 489 32 115 33 289 1
		399 -74 257 -284 490 -592 658 -439 240 -972 42 -1441 -534 -167 -205 -330
		-334 -589 -463 -153 -77 -431 -171 -618 -210 -106 -22 -111 -21 -77 15 23 24
		30 40 30 70 0 60 -34 87 -162 130 l-108 36 2 42 c2 55 81 370 99 399 10 16 42
		31 107 51 153 48 197 82 197 149 0 65 -80 109 -151 84 -43 -15 -59 -14 -59 3
		0 8 32 88 71 177 188 431 361 936 463 1344 138 554 177 977 130 1412 l-7 63
		54 24 c323 143 329 147 329 213 0 48 -16 72 -57 89 -46 20 -68 14 -232 -57
		-77 -33 -140 -54 -145 -49 -4 4 -27 53 -50 107 -51 119 -110 212 -204 322
		l-71 82 26 67 c46 120 65 191 59 218 -19 75 -109 99 -164 45z m-298 -5034 c53
		-16 73 -26 61 -31 -28 -10 -208 -36 -217 -30 -10 6 -10 39 -1 73 5 20 10 23
		42 17 20 -3 71 -16 115 -29z"/>
		</g>
    </clipPath>
</defs>
</svg>
