<?xml version="1.0" standalone="no"?>
<!DOCTYPE svg PUBLIC "-//W3C//DTD SVG 20010904//EN"
 "http://www.w3.org/TR/2001/REC-SVG-20010904/DTD/svg10.dtd">
<svg version="1.0" xmlns="http://www.w3.org/2000/svg"
 width="829.000000pt" height="1280.000000pt" viewBox="0 0 829.000000 1280.000000"
 preserveAspectRatio="xMidYMid meet">
<g transform="translate(0.000000,1280.000000) scale(0.100000,-0.100000)"
fill="#000000" stroke="none">
<path d="M4058 12784 c-313 -56 -619 -297 -758 -597 -21 -45 -43 -107 -50
-137 -9 -37 -24 -65 -47 -89 -248 -255 -408 -1317 -483 -3191 -14 -359 -29
-895 -40 -1452 l-9 -476 -56 -104 c-97 -178 -139 -228 -192 -228 -24 0 -100
63 -145 120 -19 25 -60 86 -90 136 l-55 92 -8 203 c-4 112 -9 546 -11 964 -2
784 -2 780 -49 1250 -30 293 -105 980 -111 1006 -5 28 -146 187 -227 256 -196
167 -446 186 -777 58 -80 -30 -108 -47 -176 -108 -424 -375 -646 -945 -734
-1883 -37 -401 -45 -804 -31 -1664 11 -689 15 -802 32 -925 94 -656 336 -1066
744 -1260 60 -28 126 -45 347 -89 564 -113 871 -198 1065 -296 229 -115 443
-326 646 -636 l66 -100 -9 -244 c-5 -135 -14 -400 -20 -590 -19 -605 -56
-1051 -131 -1550 -39 -267 -100 -605 -121 -673 -84 -276 172 -462 747 -541
505 -69 1288 -30 1760 89 166 42 310 107 349 158 123 162 216 990 271 2432 24
639 35 1094 35 1468 0 191 5 391 11 445 37 340 138 581 323 767 90 91 183 153
371 247 l150 76 105 6 c189 11 409 67 583 150 274 130 513 375 667 684 379
759 384 2034 15 3777 -20 94 -45 233 -56 310 -78 547 -268 845 -577 906 -85
16 -238 6 -327 -21 -344 -107 -565 -344 -669 -715 -78 -278 -106 -835 -106
-2113 l0 -809 -77 -55 c-121 -86 -174 -116 -238 -133 -143 -37 -257 39 -369
246 -35 64 -39 79 -37 138 0 36 24 675 52 1420 59 1539 62 1346 -28 1661 -328
1148 -879 1731 -1525 1614z"/>
</g>
</svg>
