<?xml version="1.0" standalone="no"?>
<!DOCTYPE svg PUBLIC "-//W3C//DTD SVG 20010904//EN"
 "http://www.w3.org/TR/2001/REC-SVG-20010904/DTD/svg10.dtd">
<svg version="1.0" xmlns="http://www.w3.org/2000/svg"
 width="1280.000000pt" height="1168.000000pt" viewBox="0 0 1280.000000 1168.000000"
 preserveAspectRatio="xMidYMid meet">
<g transform="translate(0.000000,1168.000000) scale(0.100000,-0.100000)"
fill="#000000" stroke="none">
<path d="M4570 10666 c0 -5 41 -169 90 -364 50 -195 90 -356 88 -357 -2 -1
-48 -38 -103 -82 -352 -281 -607 -686 -789 -1251 -25 -79 -46 -151 -46 -159 0
-12 -7 -14 -29 -10 -103 21 -658 74 -668 64 -1 -2 142 -41 318 -88 176 -46
325 -87 331 -90 7 -4 -2 -67 -26 -185 -52 -263 -87 -526 -113 -853 l-8 -94
-50 -17 c-44 -15 -47 -17 -25 -23 14 -4 35 -7 48 -7 21 0 22 -4 22 -68 0 -38
-3 -149 -6 -248 l-7 -179 -143 3 c-144 3 -439 -18 -587 -42 l-77 -13 -6 26
c-12 56 -36 139 -56 199 l-22 62 41 43 c50 51 141 178 192 267 56 96 122 220
117 220 -2 0 -94 -94 -204 -209 l-201 -209 -44 61 c-43 60 -117 135 -166 169
l-23 17 38 33 c105 90 196 186 323 342 9 10 -96 -56 -234 -147 l-250 -166 -85
25 c-46 13 -117 27 -156 31 l-72 6 -6 56 c-13 113 -38 230 -79 376 -41 148
-42 149 -45 97 -2 -30 1 -158 7 -285 5 -127 9 -233 7 -234 -1 -1 -71 -7 -156
-13 -85 -6 -163 -12 -173 -13 -15 -2 -23 14 -42 88 -12 50 -40 137 -62 195
-45 117 -164 383 -169 377 -3 -2 28 -156 67 -341 39 -185 69 -339 67 -341 -2
-3 -42 -16 -89 -29 -165 -48 -270 -108 -375 -215 -33 -33 -76 -87 -94 -120
-19 -33 -38 -61 -41 -61 -3 0 -32 20 -64 45 -32 25 -95 68 -141 96 -94 57
-393 204 -400 197 -3 -4 508 -423 549 -449 6 -4 1 -42 -12 -97 -12 -49 -24
-124 -27 -165 l-7 -75 -96 5 c-53 3 -145 0 -206 -6 -132 -13 -377 -53 -370
-59 3 -3 151 -17 331 -33 179 -15 327 -29 328 -31 2 -2 6 -38 9 -82 l6 -78
-42 -16 c-52 -19 -377 -185 -373 -189 2 -2 97 19 211 47 114 27 209 50 211 50
2 0 4 -11 4 -24 0 -46 49 -313 79 -429 17 -63 46 -163 66 -221 l37 -106 -50
-68 c-75 -103 -123 -177 -192 -297 -35 -60 -70 -121 -79 -135 -15 -24 -15 -24
2 -11 10 8 97 99 194 203 l175 188 30 -63 c40 -85 188 -279 247 -324 l49 -38
1 -91 c0 -93 18 -194 46 -260 8 -20 15 -38 15 -39 0 -2 -28 6 -62 17 -106 34
-106 32 -2 -36 93 -61 104 -72 161 -158 94 -144 186 -245 287 -312 l87 -59
-168 -86 c-169 -87 -383 -208 -383 -218 0 -3 8 -2 18 2 9 4 163 58 341 121
l323 113 67 -33 c105 -53 233 -104 421 -167 96 -33 174 -63 173 -69 -2 -5 -71
-103 -154 -217 -83 -114 -156 -215 -162 -223 -22 -32 267 259 340 341 l76 86
51 -13 c75 -20 342 -72 411 -79 101 -11 95 -4 95 -108 0 -51 7 -135 15 -187
16 -98 65 -314 70 -308 2 2 9 133 16 292 l13 289 110 -6 c61 -3 149 -2 196 2
l85 8 56 -53 c31 -29 101 -82 156 -118 l100 -65 52 -203 c29 -112 68 -256 87
-320 19 -65 34 -123 34 -130 0 -7 -33 -30 -73 -51 -101 -54 -298 -169 -294
-173 2 -2 88 21 192 51 104 30 194 55 201 55 6 0 40 -89 79 -207 165 -512 282
-786 451 -1061 134 -217 213 -318 324 -409 36 -30 65 -58 65 -63 0 -4 4 -12 9
-17 5 -5 6 -3 2 4 -10 18 -3 16 38 -8 20 -12 33 -26 29 -32 -3 -6 -1 -7 5 -3
6 4 30 -3 54 -15 272 -139 617 -114 976 71 156 80 254 151 455 333 177 160
191 176 261 286 138 219 299 533 395 770 30 74 36 82 55 76 94 -28 221 -56
326 -74 153 -25 253 -35 225 -22 -11 5 -132 55 -270 111 -137 57 -251 104
-253 105 -1 1 23 69 54 151 l56 149 239 215 c131 118 256 230 278 248 l39 33
113 -16 c67 -10 223 -19 377 -22 214 -5 262 -8 258 -19 -5 -13 -141 -547 -151
-594 -14 -65 146 311 210 495 l43 120 83 7 c121 11 299 36 413 59 54 12 102
17 106 12 4 -4 20 -46 36 -93 34 -102 137 -308 222 -445 34 -55 62 -97 62 -92
0 4 -43 157 -95 339 -52 182 -94 333 -92 334 1 1 52 18 112 39 61 20 151 56
201 80 l91 42 57 -29 c75 -38 237 -92 356 -118 110 -25 342 -61 348 -55 2 2
-13 11 -33 20 -21 8 -163 70 -316 137 l-277 121 60 44 c82 61 139 114 187 177
l40 52 88 -42 c85 -40 291 -124 343 -139 14 -4 -60 54 -165 130 -104 75 -194
140 -199 145 -4 4 1 36 12 72 12 34 26 90 31 122 13 71 14 233 2 295 -8 40 -6
51 22 100 17 31 31 57 32 59 1 1 16 7 32 11 l31 9 27 -102 c34 -126 115 -379
120 -374 2 2 -7 107 -21 233 -13 127 -23 240 -22 253 2 18 20 30 88 60 47 21
109 50 137 65 97 50 252 215 373 394 l48 72 103 -122 c56 -67 107 -126 112
-132 16 -17 -19 46 -101 179 l-79 130 74 142 c81 157 156 345 199 503 l28 103
36 -5 c223 -34 477 -59 462 -46 -4 3 -112 44 -240 90 l-234 83 6 31 c26 127
31 368 11 470 -6 28 -3 33 34 53 80 45 203 144 317 254 214 208 211 209 -101
23 -153 -91 -281 -165 -286 -165 -5 0 -9 6 -9 13 0 28 -75 166 -127 235 -31
40 -54 74 -52 76 2 1 24 11 49 20 92 36 489 276 455 276 -5 0 -148 -46 -317
-102 -306 -102 -308 -103 -335 -85 -49 31 -166 89 -228 113 -45 17 -60 27 -58
41 21 194 25 279 19 426 -4 92 -11 177 -16 190 -8 20 -9 20 -9 2 -1 -19 -117
-568 -126 -592 -3 -9 -16 -8 -54 2 -27 7 -114 23 -193 36 l-144 24 -2 115 c-2
131 -21 296 -58 482 -34 175 -42 193 -44 93 -1 -44 -7 -215 -14 -380 l-11
-300 -135 -6 c-254 -13 -431 -81 -592 -228 l-53 -49 -70 85 c-38 46 -108 119
-155 162 -129 118 -383 319 -354 281 6 -8 120 -153 253 -323 132 -169 241
-310 241 -313 0 -3 -16 -33 -36 -67 -20 -34 -53 -104 -74 -155 -21 -51 -40
-95 -42 -98 -3 -2 -18 0 -34 6 -118 45 -403 94 -614 106 l-115 6 360 -122
c198 -67 361 -123 363 -125 4 -3 -29 -167 -35 -174 -1 -2 -47 -10 -100 -17
-119 -17 -394 -74 -407 -86 -6 -4 101 -8 237 -8 l247 0 0 -22 c-1 -13 -7 -88
-14 -168 -12 -126 -22 -175 -81 -380 -37 -129 -69 -237 -71 -239 -2 -2 -61
-12 -131 -22 -70 -10 -159 -26 -197 -34 -38 -9 -71 -14 -74 -11 -2 3 -19 42
-38 86 -56 137 -269 519 -282 506 -2 -2 37 -134 87 -292 49 -159 93 -300 96
-314 6 -25 3 -26 -106 -58 l-111 -32 -87 82 c-104 100 -218 199 -206 178 5 -8
51 -74 102 -147 51 -73 93 -136 93 -140 0 -9 -251 -105 -258 -99 -2 3 8 91 22
198 44 331 80 717 92 971 4 81 10 149 13 152 4 2 73 5 154 6 81 2 147 5 147 9
0 8 -183 75 -248 90 l-54 12 7 212 c7 234 -7 668 -30 906 -8 85 -17 184 -21
220 l-6 65 123 53 c128 55 476 235 462 239 -4 1 -141 -37 -303 -86 -251 -74
-296 -85 -301 -72 -4 9 -15 61 -24 116 -45 265 -155 652 -243 850 -22 50 -39
91 -38 91 0 1 90 70 200 153 109 83 196 151 194 151 -7 0 -296 -158 -359 -196
-31 -19 -61 -34 -66 -34 -5 0 -19 21 -32 48 -104 215 -313 481 -501 637 -126
104 -305 214 -433 266 -31 12 -56 25 -55 28 2 3 43 86 91 185 49 98 87 180 85
181 -3 3 -169 -209 -253 -322 -8 -11 -39 -6 -169 27 -335 85 -561 113 -877
109 l-227 -4 -11 110 c-6 61 -14 147 -17 193 -4 45 -9 80 -12 77 -3 -2 -13
-91 -23 -196 -18 -195 -22 -208 -61 -209 -25 0 -173 -37 -258 -64 -92 -29
-205 -76 -276 -115 -42 -23 -54 -26 -54 -14 0 31 -73 231 -119 328 -53 111
-171 325 -171 311z m-1295 -4122 c176 -9 321 -17 322 -19 2 -1 7 -125 13 -276
13 -356 50 -854 76 -1029 4 -27 0 -41 -18 -63 l-23 -28 -102 25 c-56 13 -136
30 -176 37 l-74 12 -12 112 c-12 111 -56 327 -84 415 l-15 45 -1 -91 c-1 -50
-4 -173 -8 -274 l-6 -182 -76 6 c-133 12 -135 13 -162 64 -34 68 -34 69 -5 43
47 -44 27 -7 -25 44 -28 28 -66 76 -85 108 -39 62 -49 72 -33 30 l10 -28 -32
31 -31 32 16 63 c42 173 76 433 76 590 l0 89 53 0 c77 0 393 47 384 57 -3 2
-103 15 -223 29 -120 13 -218 25 -219 27 -1 1 -5 37 -9 81 l-7 79 78 -6 c43
-4 222 -14 398 -23z m-434 -1204 l26 -80 -36 0 c-20 0 -73 3 -119 7 -71 5 -82
8 -76 22 4 9 22 60 42 113 l34 97 52 -39 c46 -35 53 -46 77 -120z m6649 -36
c0 -14 -4 -23 -9 -20 -5 3 -7 15 -4 26 7 28 13 25 13 -6z m-5472 -1987 c23
-88 29 -88 -71 -2 l-58 50 53 16 c29 9 54 15 55 15 1 -1 10 -36 21 -79z m3980
-303 c7 -2 -20 -41 -68 -96 -44 -51 -133 -163 -198 -250 -64 -86 -118 -155
-119 -154 -2 1 13 47 32 102 19 54 59 176 89 271 30 95 57 176 60 181 2 4 47
-5 98 -21 51 -16 99 -31 106 -33z"/>
<path d="M5210 576 c0 -3 9 -10 20 -16 11 -6 20 -8 20 -6 0 3 -9 10 -20 16
-11 6 -20 8 -20 6z"/>
</g>
</svg>
